<svg width="91" height="54" viewBox="0 0 91 54" fill="none" xmlns="http://www.w3.org/2000/svg">
    <g clip-path="url(#w5p7mi7oca)" fill="#000">
        <path d="M5.239 39.85a3.485 3.485 0 0 1-3.474-3.561l.113-5.753A3.47 3.47 0 0 1 4.42 27.24l30.472-8.543a3.46 3.46 0 0 1 .942-.131 3.487 3.487 0 0 1 3.471 3.563l-.176 9.01a3.493 3.493 0 0 1-2.885 3.371L5.835 39.8a3.538 3.538 0 0 1-.599.05h.003z"/>
        <path d="M35.834 19.78a2.279 2.279 0 0 1 2.266 2.324l-.176 9.009a2.277 2.277 0 0 1-1.883 2.2L5.632 38.601a2.277 2.277 0 0 1-2.66-2.29l.113-5.753a2.278 2.278 0 0 1 1.659-2.15l30.472-8.543c.207-.058.412-.085.615-.085m0-2.426c-.425 0-.852.058-1.265.175l-30.47 8.543a4.672 4.672 0 0 0-3.422 4.44L.56 36.264a4.676 4.676 0 0 0 1.338 3.384 4.704 4.704 0 0 0 3.343 1.414c.268 0 .539-.024.804-.07l30.41-5.288a4.705 4.705 0 0 0 3.884-4.543l.176-9.01a4.674 4.674 0 0 0-1.335-3.381 4.707 4.707 0 0 0-3.346-1.417h-.003zM47.294 52.115a3.483 3.483 0 0 1-3.452-3.546l.316-19.887c.029-1.894 1.588-3.437 3.474-3.437.466 0 .922.095 1.354.279L59.1 29.822a3.475 3.475 0 0 1 2.12 3.273l-.249 15.658c-.029 1.895-1.588 3.435-3.474 3.435l-10.202-.07v-.003z"/>
        <path d="M47.632 26.455c.292 0 .591.059.886.182l10.113 4.299a2.276 2.276 0 0 1 1.383 2.134l-.249 15.659a2.273 2.273 0 0 1-2.267 2.241h-.016l-10.179-.07a2.275 2.275 0 0 1-2.252-2.314l.316-19.887a2.275 2.275 0 0 1 2.267-2.244m0-2.425c-2.54 0-4.64 2.078-4.68 4.63l-.317 19.887a4.686 4.686 0 0 0 1.332 3.362 4.64 4.64 0 0 0 3.317 1.416l10.179.07h.033c2.54 0 4.64-2.076 4.682-4.628l.248-15.658a4.687 4.687 0 0 0-2.856-4.407L49.46 24.403a4.655 4.655 0 0 0-1.825-.373zM47.45 2.426c.264 0 .534.046.8.148L87.116 17.23a2.277 2.277 0 0 1 1.47 2.133v10.542c0 1.31-1.07 2.28-2.267 2.28a2.25 2.25 0 0 1-.874-.177L46.483 15.67a2.282 2.282 0 0 1-1.396-2.127l.1-8.859a2.276 2.276 0 0 1 2.264-2.256m0-2.426c-2.552 0-4.65 2.089-4.679 4.655l-.099 8.86a4.684 4.684 0 0 0 2.878 4.392l38.962 16.338a4.64 4.64 0 0 0 1.806.366c2.58 0 4.681-2.11 4.681-4.706V19.365a4.729 4.729 0 0 0-3.037-4.405L49.097.3a4.632 4.632 0 0 0-1.646-.3v.002zM73.154 52.566c-1.904-.031-3.438-1.615-3.416-3.532l.123-10.901c.022-1.904 1.58-3.452 3.472-3.452.35 0 .7.053 1.038.16l12.853 4.027a3.516 3.516 0 0 1 2.44 3.374l-.079 7.096c-.021 1.904-1.579 3.451-3.474 3.451l-12.954-.22-.003-.003z"/>
        <path d="M73.335 35.894c.223 0 .452.034.679.104l12.853 4.027a2.282 2.282 0 0 1 1.593 2.203l-.08 7.095a2.275 2.275 0 0 1-2.266 2.254h-.039l-12.897-.221a2.272 2.272 0 0 1-2.228-2.305l.123-10.901a2.274 2.274 0 0 1 2.265-2.253m0-2.426c-2.55 0-4.65 2.086-4.679 4.652l-.123 10.902c-.029 2.578 2.035 4.713 4.602 4.757l12.896.22h.08c2.551 0 4.652-2.086 4.68-4.65l.08-7.095c.025-2.062-1.327-3.932-3.288-4.546l-12.853-4.027a4.643 4.643 0 0 0-1.398-.216l.003.003zM7.718 11.154c.918 0 1.557.27 1.557 1.135v36.476c0 1.26-1.371 2.278-3.06 2.278h-.74c-1.69 0-3.06-1.021-3.06-2.278V13.793c0-1.04.948-1.95 2.302-2.207l.739-.141c.806-.153 1.605-.291 2.262-.291zm0-2.426c-.883 0-1.825.165-2.711.332l-.739.141C1.755 9.681 0 11.57 0 13.793v34.972c0 2.64 2.405 4.704 5.475 4.704h.74c3.07 0 5.474-2.067 5.474-4.704V12.29c0-1.237-.565-2.31-1.552-2.94-.654-.417-1.446-.621-2.416-.621h-.003zM35.298 3.787c1.54 0 2.88.987 2.88 2.28v42.698c0 1.26-1.292 2.278-2.885 2.278H32.68c-1.594 0-2.885-1.021-2.885-2.278V6.66c0-1.017.852-1.91 2.088-2.19l2.612-.593c.27-.06.538-.09.802-.09zm0-2.426c-.447 0-.896.05-1.335.15l-2.613.592c-2.339.531-3.97 2.404-3.97 4.556v42.106c0 2.593 2.377 4.704 5.298 4.704h2.612c2.924 0 5.3-2.11 5.3-4.704V6.067c0-2.596-2.376-4.706-5.295-4.706h.003z"/>
    </g>
    <defs>
        <clipPath id="w5p7mi7oca">
            <path fill="#fff" d="M0 0h91v54H0z"/>
        </clipPath>
    </defs>
</svg>
