<svg width="22" height="18" viewBox="0 0 22 18" fill="none" xmlns="http://www.w3.org/2000/svg">
<path d="M21.8797 9.01943C21.9413 8.8847 21.9708 8.73749 21.9657 8.58943C21.9636 8.40488 21.9347 8.22162 21.8797 8.04543C21.8278 7.99538 21.7842 7.9373 21.7507 7.87343C21.7137 7.80313 21.6705 7.73621 21.6217 7.67343L14.2917 0.343429C14.0601 0.12296 13.7525 0 13.4327 0C13.1129 0 12.8054 0.12296 12.5737 0.343429C12.3515 0.574013 12.2281 0.882214 12.2297 1.20243C12.2281 1.52264 12.3515 1.83084 12.5737 2.06143L17.8417 7.33043H1.23274C1.06828 7.32163 0.903744 7.34624 0.749059 7.40279C0.594375 7.45933 0.452753 7.54664 0.332743 7.65943C0.221011 7.77493 0.134025 7.91201 0.0771106 8.06229C0.0201961 8.21258 -0.0054498 8.37289 0.00174277 8.53343C-0.00706065 8.69789 0.0175535 8.86243 0.0740992 9.01711C0.130645 9.1718 0.21795 9.31342 0.330743 9.43343C0.450753 9.54622 0.592375 9.63353 0.747059 9.69007C0.901744 9.74662 1.06628 9.77123 1.23074 9.76243H17.8417L12.5727 15.0024C12.3523 15.2341 12.2293 15.5416 12.2293 15.8614C12.2293 16.1812 12.3523 16.4888 12.5727 16.7204C12.6973 16.8481 12.8491 16.9458 13.0167 17.0064C13.1494 17.0578 13.2896 17.0869 13.4317 17.0924C13.5835 17.089 13.7337 17.0599 13.8757 17.0064C14.0371 16.9498 14.1803 16.851 14.2907 16.7204L21.6217 9.38943L21.7937 9.21743C21.8207 9.19193 21.8422 9.16125 21.857 9.12722C21.8718 9.09319 21.8795 9.05653 21.8797 9.01943Z" fill="white"/>
</svg>
