<svg width="105" height="91" viewBox="0 0 105 91" fill="none" xmlns="http://www.w3.org/2000/svg">
<path d="M102.763 70.4681H98.461V21.7584C98.461 18.3096 95.7122 15.5608 92.0927 15.5608H74.8829C72.1341 15.5608 72.1341 19.8632 74.8829 19.8632H92.2634C93.3049 19.8632 94.3293 20.7169 94.3293 21.7584V70.4681H10.3293V21.7584C10.3293 20.7169 11.1829 19.8632 12.3951 19.8632H31.8415C34.5902 19.8632 34.5902 15.5608 31.8415 15.5608H12.3951C8.94634 15.5608 6.02683 18.3096 6.02683 21.7584V70.4681H2.23658C1.02439 70.4681 0 71.5096 0 72.7047V80.6266C0 81.651 0.682927 82.351 1.55366 82.6925L14.1195 86.4827H8.26341C5.51463 86.4827 5.51463 90.7852 8.26341 90.7852H98.6317C101.38 90.7852 101.38 86.4827 98.6317 86.4827H90.8805L103.446 82.6925C104.3 82.351 105 81.6681 105 80.6266V72.534C105 71.5096 103.976 70.4681 102.763 70.4681ZM40.2756 74.7705H64.7244V77.8779H40.2756V74.7705ZM100.698 79.073L75.9073 86.4827H28.9219L4.30244 79.073V74.7705H35.9732V80.1144C35.9732 81.3096 36.9976 82.351 38.2098 82.351H66.961C68.1732 82.351 69.1976 81.3096 69.1976 80.1144V74.7705H100.698V79.073Z" fill="#1A2217"/>
<path d="M32.8322 29.8721C35.5809 29.8721 35.5809 25.5697 32.8322 25.5697H18.2005C16.9883 25.5697 15.9639 26.6111 15.9639 27.8062V66.5453C15.9639 67.7575 16.9883 68.7819 18.2005 68.7819H88.7809C89.9931 68.7819 91.0175 67.7404 91.0175 66.5453V27.6355C91.0175 26.4233 89.9931 25.3989 88.7809 25.3989H75.8736C73.1248 25.3989 73.1248 29.7014 75.8736 29.7014H86.5443V64.1209H20.2663V29.7014H32.8322V29.8721Z" fill="#1A2217"/>
<path d="M32.7787 46.8761H51.4194C51.9687 46.8761 52.4955 46.6674 52.8839 46.2958C53.2723 45.9243 53.4905 45.4204 53.4905 44.895C53.4905 44.3695 53.2723 43.8656 52.8839 43.4941C52.4955 43.1225 51.9687 42.9138 51.4194 42.9138H32.7787C32.2294 42.9138 31.7026 43.1225 31.3142 43.4941C30.9257 43.8656 30.7075 44.3695 30.7075 44.895C30.7075 45.4204 30.9257 45.9243 31.3142 46.2958C31.7026 46.6674 32.2294 46.8761 32.7787 46.8761Z" fill="#1A2217"/>
<path d="M32.6301 53.1446H67.0364C67.5732 53.1446 68.0879 52.9379 68.4675 52.57C68.8471 52.202 69.0603 51.703 69.0603 51.1826C69.0603 50.6623 68.8471 50.1633 68.4675 49.7953C68.0879 49.4274 67.5732 49.2207 67.0364 49.2207H32.6301C32.0933 49.2207 31.5785 49.4274 31.199 49.7953C30.8194 50.1633 30.6062 50.6623 30.6062 51.1826C30.6062 51.703 30.8194 52.202 31.199 52.57C31.5785 52.9379 32.0933 53.1446 32.6301 53.1446Z" fill="#1A2217"/>
<path d="M32.7787 59.7533H51.4194C51.9687 59.7533 52.4955 59.5446 52.8839 59.173C53.2723 58.8015 53.4905 58.2976 53.4905 57.7721C53.4905 57.2467 53.2723 56.7428 52.8839 56.3713C52.4955 55.9997 51.9687 55.791 51.4194 55.791H32.7787C32.2294 55.791 31.7026 55.9997 31.3142 56.3713C30.9257 56.7428 30.7075 57.2467 30.7075 57.7721C30.7075 58.2976 30.9257 58.8015 31.3142 59.173C31.7026 59.5446 32.2294 59.7533 32.7787 59.7533Z" fill="#1A2217"/>
<path d="M45.4736 37.7898L53.0505 35.5308C53.1792 35.4922 53.2837 35.4265 53.3603 35.336L74.345 10.4892C74.8153 9.92992 74.8311 9.02634 74.3891 7.97672C73.9471 6.9271 73.0834 5.81716 71.9873 4.8904L70.3329 3.49312C69.2358 2.56763 67.997 1.90179 66.8882 1.64167C65.7794 1.38155 64.8912 1.54839 64.4185 2.10558L43.4337 26.9524C43.3573 27.0429 43.31 27.1571 43.2935 27.2903L42.3343 35.1385C42.3024 35.3989 42.3898 35.7227 42.5842 36.0641C42.7786 36.4054 43.0701 36.7469 43.4174 37.0402C43.7647 37.3335 44.1502 37.5638 44.5192 37.6983C44.8883 37.8328 45.2222 37.8649 45.4736 37.7898ZM66.6603 6.16353L67.7273 4.90014C67.8216 4.78845 67.9993 4.75493 68.2211 4.80698C68.4429 4.85902 68.6908 4.99235 68.9102 5.17764L70.5646 6.57492C70.784 6.76021 70.957 6.98228 71.0454 7.19228C71.1338 7.40228 71.1305 7.583 71.0362 7.69469L69.9692 8.95809L66.6603 6.16353ZM64.5263 8.69032L65.2376 7.84806L68.5465 10.6426L67.8351 11.4849L64.5263 8.69032ZM48.8766 27.2201L63.1036 10.3748L66.4124 13.1694L52.1855 30.0147L48.8766 27.2201ZM46.8582 29.61L47.4539 28.9046L50.7628 31.6992L50.167 32.4046L46.3785 33.5341L46.8582 29.61Z" fill="black"/>
</svg>
