<svg width="544" height="486" viewBox="0 0 544 486" fill="none" xmlns="http://www.w3.org/2000/svg">
<line x1="21" y1="240.5" x2="521" y2="240.5" stroke="#E2E8F0"/>
<line x1="271" y1="438.5" x2="410" y2="438.5" stroke="#E2E8F0"/>
<line x1="132" y1="41.5" x2="271" y2="41.5" stroke="#E2E8F0"/>
<line x1="271.5" y1="-2.18557e-08" x2="271.5" y2="486" stroke="#E2E8F0"/>
<circle cx="271.5" cy="240.5" r="198" stroke="#E2E8F0"/>
<circle cx="271" cy="241" r="164.5" stroke="#E2E8F0"/>
<circle cx="271" cy="242" r="114.5" fill="white" stroke="#627084"/>
<circle cx="95.5" cy="149.5" r="28.5" fill="#E2E8F0"/>
<circle cx="332" cy="394" r="24" fill="#E2E8F0"/>
<circle cx="431" cy="199" r="12" fill="#E2E8F0"/>
<g filter="url(#filter0_d_1991_12455)">
<rect x="2" y="326" width="231" height="62" rx="26" fill="#FBFCFC"/>
</g>
<g filter="url(#filter1_d_1991_12455)">
<rect x="303" y="96" width="231" height="62" rx="26" fill="#FBFCFC"/>
</g>
<rect x="380" y="115" width="135" height="9" rx="4.5" fill="#CBD5E1"/>
<rect x="380" y="131" width="135" height="9" rx="4.5" fill="#CBD5E1"/>
<rect x="380" y="115" width="96.5625" height="9" rx="4.5" fill="#94A3B8"/>
<rect x="380" y="131" width="63.75" height="9" rx="4.5" fill="#94A3B8"/>
<rect x="78" y="345" width="130" height="9" rx="4.5" fill="#CBD5E1"/>
<rect x="78" y="361" width="130" height="9" rx="4.5" fill="#CBD5E1"/>
<rect x="78" y="345" width="46.9444" height="9" rx="4.5" fill="#94A3B8"/>
<rect x="78" y="361" width="92.9861" height="9" rx="4.5" fill="#94A3B8"/>
<path d="M334.946 273.111H329.464V211.043C329.464 206.648 325.961 203.146 321.349 203.146H299.419C295.917 203.146 295.917 208.628 299.419 208.628H321.566C322.893 208.628 324.199 209.716 324.199 211.043V273.111H217.162V211.043C217.162 209.716 218.25 208.628 219.794 208.628H244.574C248.077 208.628 248.077 203.146 244.574 203.146H219.794C215.4 203.146 211.68 206.648 211.68 211.043V273.111H206.85C205.305 273.111 204 274.438 204 275.961V286.055C204 287.361 204.87 288.253 205.98 288.688L221.992 293.518H214.53C211.027 293.518 211.027 299 214.53 299H329.681C333.184 299 333.184 293.518 329.681 293.518H319.804L335.816 288.688C336.904 288.253 337.796 287.383 337.796 286.055V275.743C337.796 274.438 336.491 273.111 334.946 273.111ZM255.321 278.593H286.475V282.553H255.321V278.593ZM332.314 284.076L300.725 293.518H240.854L209.482 284.076V278.593H249.839V285.403C249.839 286.926 251.144 288.253 252.689 288.253H289.325C290.869 288.253 292.175 286.926 292.175 285.403V278.593H332.314V284.076Z" fill="#1A2217"/>
<path d="M245.836 221.382C249.339 221.382 249.339 215.899 245.836 215.899H227.192C225.647 215.899 224.342 217.227 224.342 218.749V268.112C224.342 269.657 225.647 270.962 227.192 270.962H317.129C318.674 270.962 319.979 269.635 319.979 268.112V218.532C319.979 216.987 318.674 215.682 317.129 215.682H300.682C297.179 215.682 297.179 221.164 300.682 221.164H314.279V265.023H229.824V221.164H245.836V221.382Z" fill="#1A2217"/>
<path d="M251.536 199.017H253.081V226.864C253.081 228.409 254.386 229.714 255.931 229.714H267.548C269.093 229.714 270.398 228.409 270.398 226.864V216.77C270.398 212.593 276.968 212.593 276.968 216.77V226.864C276.968 228.409 278.274 229.714 279.818 229.714H290.783C292.328 229.714 293.633 228.409 293.633 226.864V199.017H295.178C297.81 199.017 298.898 195.515 296.722 193.97L275.01 176.653C273.923 175.782 272.595 175.782 271.508 176.653L249.796 194.209C247.816 195.754 249.143 199.039 251.558 199.039L251.536 199.017ZM288.172 224.014H282.472V216.77C282.472 211.94 278.535 208.002 273.705 208.002C268.875 208.002 264.938 211.94 264.938 216.77V224.014H258.803V199.017H288.194V224.014H288.172ZM273.466 182.331L287.498 193.513H259.412L273.444 182.331H273.466Z" fill="#1A2217"/>
<path d="M245.768 241.012H269.521C270.221 241.012 270.892 240.746 271.387 240.273C271.882 239.799 272.16 239.157 272.16 238.488C272.16 237.818 271.882 237.176 271.387 236.703C270.892 236.229 270.221 235.963 269.521 235.963H245.768C245.068 235.963 244.397 236.229 243.902 236.703C243.407 237.176 243.129 237.818 243.129 238.488C243.129 239.157 243.407 239.799 243.902 240.273C244.397 240.746 245.068 241.012 245.768 241.012Z" fill="#1A2217"/>
<path d="M245.579 249H289.421C290.105 249 290.761 248.737 291.245 248.268C291.728 247.799 292 247.163 292 246.5C292 245.837 291.728 245.201 291.245 244.732C290.761 244.263 290.105 244 289.421 244H245.579C244.895 244 244.239 244.263 243.755 244.732C243.272 245.201 243 245.837 243 246.5C243 247.163 243.272 247.799 243.755 248.268C244.239 248.737 244.895 249 245.579 249Z" fill="#1A2217"/>
<path d="M245.768 257.421H269.521C270.221 257.421 270.892 257.155 271.387 256.682C271.882 256.208 272.16 255.566 272.16 254.897C272.16 254.227 271.882 253.585 271.387 253.112C270.892 252.638 270.221 252.372 269.521 252.372H245.768C245.068 252.372 244.397 252.638 243.902 253.112C243.407 253.585 243.129 254.227 243.129 254.897C243.129 255.566 243.407 256.208 243.902 256.682C244.397 257.155 245.068 257.421 245.768 257.421Z" fill="#1A2217"/>
<path d="M341.5 135H343.92L345.32 127.78L345.96 123.24H346.04L346.72 127.78L348.16 135H350.68L353.94 120.24H351.5L349.98 129.34L349.54 132.32H349.44L348.94 129.34L347.28 121.16H344.86L343.28 129.34L342.78 132.32H342.7L342.26 129.34L340.66 120.24H338.06L341.5 135ZM337.4 128.12H354.58V126.9H339.04L337.4 127.02V128.12Z" fill="black"/>
<path d="M356.222 109.61C353.35 107.95 350.016 107 346.46 107C335.669 107 326.92 115.748 326.92 126.54C326.92 137.332 335.669 146.08 346.46 146.08C357.252 146.08 366 137.332 366 126.54C366 122.985 365.05 119.651 363.391 116.779" stroke="black" stroke-width="2" stroke-miterlimit="10" stroke-linecap="round" stroke-linejoin="round"/>
<path d="M360.279 112.722L360.292 112.709" stroke="black" stroke-width="2" stroke-miterlimit="10" stroke-linecap="round" stroke-linejoin="round"/>
<path d="M361.005 126.54C361.005 134.573 354.493 141.085 346.46 141.085C338.427 141.085 331.916 134.573 331.916 126.54C331.916 118.507 338.427 111.996 346.46 111.996C354.493 111.996 361.005 118.507 361.005 126.54Z" stroke="black" stroke-width="2" stroke-miterlimit="10" stroke-linecap="round" stroke-linejoin="round"/>
<path d="M326.92 126.54H316" stroke="black" stroke-width="2" stroke-miterlimit="10" stroke-linecap="round" stroke-linejoin="round"/>
<path d="M328.266 133.68H321.798" stroke="black" stroke-width="2" stroke-miterlimit="10" stroke-linecap="round" stroke-linejoin="round"/>
<path d="M327.995 119.4H321.418" stroke="black" stroke-width="2" stroke-miterlimit="10" stroke-linecap="round" stroke-linejoin="round"/>
<path d="M22.7273 358H29.2727C29.4656 358 29.6506 358.105 29.787 358.293C29.9234 358.48 30 358.735 30 359C30 359.265 29.9234 359.52 29.787 359.707C29.6506 359.895 29.4656 360 29.2727 360H22.7273C22.5344 360 22.3494 359.895 22.213 359.707C22.0766 359.52 22 359.265 22 359C22 358.735 22.0766 358.48 22.213 358.293C22.3494 358.105 22.5344 358 22.7273 358Z" fill="#1A2217"/>
<path d="M20.9091 353H29.0909C29.332 353 29.5632 353.105 29.7337 353.293C29.9042 353.48 30 353.735 30 354C30 354.265 29.9042 354.52 29.7337 354.707C29.5632 354.895 29.332 355 29.0909 355H20.9091C20.668 355 20.4368 354.895 20.2663 354.707C20.0958 354.52 20 354.265 20 354C20 353.735 20.0958 353.48 20.2663 353.293C20.4368 353.105 20.668 353 20.9091 353Z" fill="#1A2217"/>
<path d="M20 362H29C29.2652 362 29.5196 362.105 29.7071 362.293C29.8946 362.48 30 362.735 30 363C30 363.265 29.8946 363.52 29.7071 363.707C29.5196 363.895 29.2652 364 29 364H20C19.7348 364 19.4804 363.895 19.2929 363.707C19.1054 363.52 19 363.265 19 363C19 362.735 19.1054 362.48 19.2929 362.293C19.4804 362.105 19.7348 362 20 362Z" fill="#1A2217"/>
<path d="M66.2535 343.958H36.3189C36.1347 343.06 35.62 342.263 34.8748 341.72C34.1295 341.176 33.2069 340.927 32.286 341.019C31.365 341.111 30.5115 341.538 29.8911 342.218C29.2707 342.897 28.9276 343.781 28.9286 344.696V369.807C28.9296 370.786 29.3231 371.725 30.0229 372.417C30.7227 373.11 31.6715 373.499 32.6611 373.5H66.2535C66.4515 373.5 66.6414 373.422 66.7814 373.284C66.9214 373.145 67 372.957 67 372.761V344.696C67 344.501 66.9214 344.313 66.7814 344.174C66.6414 344.036 66.4515 343.958 66.2535 343.958ZM30.4216 344.696C30.4216 344.109 30.6575 343.545 31.0775 343.13C31.4975 342.714 32.0671 342.481 32.6611 342.481C33.255 342.481 33.8246 342.714 34.2446 343.13C34.6646 343.545 34.9006 344.109 34.9006 344.696V366.116C34.255 365.636 33.469 365.376 32.6611 365.376C31.8532 365.376 31.0672 365.636 30.4216 366.116V344.696ZM65.507 372.023H32.6611C32.0674 372.022 31.4982 371.788 31.0784 371.373C30.6586 370.958 30.4224 370.395 30.4216 369.807V369.069C30.4216 368.481 30.6575 367.918 31.0775 367.502C31.4975 367.086 32.0671 366.853 32.6611 366.853C33.255 366.853 33.8246 367.086 34.2446 367.502C34.6646 367.918 34.9006 368.481 34.9006 369.069C34.9006 369.265 34.9792 369.452 35.1192 369.591C35.2592 369.729 35.4491 369.807 35.6471 369.807C35.845 369.807 36.0349 369.729 36.1749 369.591C36.3149 369.452 36.3936 369.265 36.3936 369.069V345.435H65.507V372.023Z" fill="black"/>
<path d="M41.8272 367.473L59.7547 367.394C59.9528 367.393 60.1425 367.319 60.282 367.188C60.4215 367.057 60.4994 366.881 60.4986 366.697L60.4616 358.374C60.4607 358.19 60.3813 358.014 60.2406 357.884C60.0999 357.755 59.9096 357.683 59.7115 357.683L51.4947 357.72L51.4608 350.091C51.46 349.907 51.3805 349.731 51.2398 349.601C51.0992 349.472 50.9088 349.399 50.7107 349.4L41.747 349.44C41.5489 349.441 41.3592 349.515 41.2197 349.646C41.0802 349.776 41.0023 349.953 41.0031 350.137L41.0771 366.783C41.078 366.967 41.1574 367.143 41.2981 367.273C41.4388 367.402 41.6291 367.474 41.8272 367.473ZM42.5372 359.147L44.7781 359.137C44.9762 359.136 45.1659 359.062 45.3054 358.932C45.4449 358.801 45.5228 358.624 45.522 358.44C45.5212 358.256 45.4417 358.08 45.301 357.951C45.1604 357.821 44.97 357.749 44.7719 357.75L42.531 357.76L42.5001 350.824L49.9699 350.791L50.0008 357.727L47.7598 357.737C47.5617 357.737 47.3721 357.811 47.2325 357.942C47.093 358.073 47.0151 358.25 47.0159 358.434C47.0168 358.617 47.0962 358.794 47.2369 358.923C47.3776 359.052 47.5679 359.125 47.766 359.124L50.0069 359.114L50.0162 361.195C50.017 361.379 50.0965 361.555 50.2372 361.684C50.3778 361.813 50.5682 361.886 50.7663 361.885C50.9644 361.884 51.1541 361.81 51.2936 361.679C51.4331 361.549 51.511 361.372 51.5102 361.188L51.5009 359.107L58.9707 359.074L59.0016 366.01L51.5318 366.043L51.5225 363.962C51.5217 363.778 51.4422 363.602 51.3015 363.473C51.1609 363.343 50.9706 363.271 50.7724 363.272C50.5743 363.273 50.3847 363.347 50.2452 363.478C50.1056 363.608 50.0277 363.785 50.0285 363.969L50.0378 366.05L42.568 366.083L42.5372 359.147Z" fill="black"/>
<defs>
<filter id="filter0_d_1991_12455" x="0" y="324" width="243" height="74" filterUnits="userSpaceOnUse" color-interpolation-filters="sRGB">
<feFlood flood-opacity="0" result="BackgroundImageFix"/>
<feColorMatrix in="SourceAlpha" type="matrix" values="0 0 0 0 0 0 0 0 0 0 0 0 0 0 0 0 0 0 127 0" result="hardAlpha"/>
<feOffset dx="4" dy="4"/>
<feGaussianBlur stdDeviation="3"/>
<feComposite in2="hardAlpha" operator="out"/>
<feColorMatrix type="matrix" values="0 0 0 0 0 0 0 0 0 0 0 0 0 0 0 0 0 0 0.25 0"/>
<feBlend mode="normal" in2="BackgroundImageFix" result="effect1_dropShadow_1991_12455"/>
<feBlend mode="normal" in="SourceGraphic" in2="effect1_dropShadow_1991_12455" result="shape"/>
</filter>
<filter id="filter1_d_1991_12455" x="301" y="94" width="243" height="74" filterUnits="userSpaceOnUse" color-interpolation-filters="sRGB">
<feFlood flood-opacity="0" result="BackgroundImageFix"/>
<feColorMatrix in="SourceAlpha" type="matrix" values="0 0 0 0 0 0 0 0 0 0 0 0 0 0 0 0 0 0 127 0" result="hardAlpha"/>
<feOffset dx="4" dy="4"/>
<feGaussianBlur stdDeviation="3"/>
<feComposite in2="hardAlpha" operator="out"/>
<feColorMatrix type="matrix" values="0 0 0 0 0 0 0 0 0 0 0 0 0 0 0 0 0 0 0.25 0"/>
<feBlend mode="normal" in2="BackgroundImageFix" result="effect1_dropShadow_1991_12455"/>
<feBlend mode="normal" in="SourceGraphic" in2="effect1_dropShadow_1991_12455" result="shape"/>
</filter>
</defs>
</svg>
