<svg width="310" height="134" viewBox="0 0 310 134" fill="none" xmlns="http://www.w3.org/2000/svg">
<circle cx="251.5" cy="80.5" r="11.5" fill="#E2E8F0"/>
<circle cx="279" cy="37" r="13" fill="#E2E8F0"/>
<circle cx="306" cy="67" r="4" fill="#E2E8F0"/>
<circle cx="61" cy="41" r="4" fill="#E2E8F0"/>
<circle cx="77.5" cy="87.5" r="7.5" fill="#E2E8F0"/>
<circle cx="11.5" cy="29.5" r="11.5" fill="#E2E8F0"/>
<path d="M213.549 0.023593H118.872C112.455 0.023593 107.217 5.26113 107.217 11.6783V111.828H95.0906C88.9094 111.828 93.6751 123.719 95.3265 126.102C98.6531 131.103 104.362 133.722 110.308 133.722H181.911C192.15 133.722 199.983 124.45 199.983 114.683V22.3657H212.817C218.998 22.3657 223.764 17.6 224 11.4188C224 5.23753 219.47 0.47185 213.525 0C213.289 0 220.414 0.47185 213.525 0L213.549 0.023593ZM98.1812 117.774H160.984C161.456 121.572 163.131 125.135 165.514 127.753H110.095C103.678 127.753 99.3844 123.955 98.2048 117.774H98.1812ZM194.038 114.683C193.802 123.483 187.384 127.281 181.675 127.753H178.584C175.022 127.281 171.224 125.606 169.077 122.516C167.897 120.841 167.166 118.717 166.93 116.571C166.694 114.424 166.694 111.569 163.839 111.569H113.186V11.6783C113.186 8.58767 115.805 5.9689 118.895 5.9689H199.299C195.972 9.53137 193.825 14.533 193.825 19.5346V114.683H194.061H194.038ZM212.581 16.444H200.219C201.634 10.7346 206.636 6.20483 212.581 5.9689C219.47 6.20483 219.47 16.444 212.581 16.444Z" fill="#1A2217"/>
<path d="M124.109 68.2767H139.798C143.597 68.2767 143.597 62.3314 139.798 62.3314H124.109C120.311 62.3314 120.311 68.2767 124.109 68.2767Z" fill="#1A2217"/>
<path d="M149.094 62.3314C145.295 62.3314 145.295 68.2767 149.094 68.2767H155.275C159.073 68.2767 159.073 62.3314 155.275 62.3314H149.094Z" fill="#1A2217"/>
<path d="M161.692 65.4219C161.692 67.0969 163.108 68.5125 164.783 68.5125H183.562C187.361 68.5125 187.361 62.5672 183.562 62.5672H164.783C163.108 62.3313 161.692 63.7468 161.692 65.4219Z" fill="#1A2217"/>
<path d="M124.109 77.7843H155.275C159.073 77.7843 159.073 71.839 155.275 71.839H124.109C120.311 71.839 120.311 77.7843 124.109 77.7843Z" fill="#1A2217"/>
<path d="M184.294 89.9346H124.109C120.311 89.9346 120.311 95.8799 124.109 95.8799H184.294C188.092 95.8799 188.092 89.9346 184.294 89.9346Z" fill="#1A2217"/>
<path d="M184.294 98.9703H124.109C120.311 98.9703 120.311 104.916 124.109 104.916H184.294C188.092 104.916 188.092 98.9703 184.294 98.9703Z" fill="#1A2217"/>
<path d="M183.35 71.839H164.57C160.772 71.839 160.772 77.7843 164.57 77.7843H183.35C187.148 77.7843 187.148 71.839 183.35 71.839Z" fill="#1A2217"/>
<path d="M124.109 87.08H139.798C143.597 87.08 143.597 81.1346 139.798 81.1346H124.109C120.311 81.1346 120.311 87.08 124.109 87.08Z" fill="#1A2217"/>
<path d="M155.275 81.1346H149.094C145.295 81.1346 145.295 87.08 149.094 87.08H155.275C159.309 87.08 159.309 81.1346 155.275 81.1346Z" fill="#1A2217"/>
<path d="M183.35 81.1346H164.57C160.772 81.1346 160.772 87.08 164.57 87.08H183.35C187.148 87.08 187.148 81.1346 183.35 81.1346Z" fill="#1A2217"/>
<path d="M135.764 30.9296H136.472V53.5312C136.472 55.2063 137.911 56.6218 139.562 56.6218H149.306C150.981 56.6218 152.397 55.1827 152.397 53.5312V45.2031C152.397 42.5843 156.431 42.5843 156.431 45.2031V53.5312C156.431 55.2063 157.847 56.6218 159.522 56.6218H169.029C170.705 56.6218 172.12 55.1827 172.12 53.5312V30.9296H172.828C175.683 30.9296 176.862 27.1312 174.503 25.4562L155.959 10.9468C154.78 10.0031 153.34 10.0031 152.161 10.9468L133.853 25.4562C131.942 27.3672 133.145 30.9296 135.764 30.9296ZM165.727 50.4406H162.164V44.9672C162.164 40.6733 158.602 36.8749 154.072 36.8749C149.542 36.8749 145.98 40.4374 145.98 44.9672V50.4406H142.417V30.9296H165.727V50.4406ZM154.072 17.1516L163.816 25.0079H144.305L154.048 17.1516H154.072Z" fill="#1A2217"/>
<path d="M97.9453 71.3673H92V77.3126H97.9453V71.3673Z" fill="#1A2217"/>
<path d="M103.891 65.422H97.9453V71.3673H103.891V65.422Z" fill="#1A2217"/>
<path d="M97.9453 59.4766H92V65.4219H97.9453V59.4766Z" fill="#1A2217"/>
<path d="M210.93 107.063H204.984V113.008H210.93V107.063Z" fill="#1A2217"/>
<path d="M216.875 101.117H210.93V107.063H216.875V101.117Z" fill="#1A2217"/>
<path d="M216.875 80.1672H210.93V86.1125H216.875V80.1672Z" fill="#1A2217"/>
<path d="M210.93 95.172H204.984V101.117H210.93V95.172Z" fill="#1A2217"/>
<path d="M210.93 86.1125H204.984V92.0579H210.93V86.1125Z" fill="#1A2217"/>
</svg>
