<svg width="1446" height="709" viewBox="0 0 1446 709" fill="none" xmlns="http://www.w3.org/2000/svg">
<g clip-path="url(#clip0_1308_12405)">
<path d="M969.786 709C958.887 709 947.985 704.855 939.69 696.561L751.566 508.543C734.97 491.955 734.97 464.968 751.566 448.38L830.607 369.505C830.978 369.138 831.479 368.93 832.002 368.93H860.32V340.627C860.32 340.104 860.528 339.604 860.896 339.233L939.69 260.362C954.748 245.313 954.748 220.826 939.69 205.777L751.563 17.7618C744.269 10.4722 734.572 6.4561 724.253 6.4561C713.934 6.4561 704.241 10.4722 696.947 17.7618L508.823 205.781C501.529 213.07 497.511 222.762 497.511 233.071C497.511 243.38 501.529 253.072 508.823 260.366L587.2 338.676H616.614C617.702 338.676 618.585 339.559 618.585 340.646V370.043L696.939 448.38C713.536 464.968 713.536 491.955 696.939 508.543L508.816 696.561C492.219 713.149 465.216 713.149 448.62 696.561L260.5 508.543C252.459 500.507 248.032 489.826 248.032 478.463C248.032 467.101 252.459 456.417 260.5 448.384L339.282 369.646C339.654 369.274 340.154 369.07 340.677 369.07H369.261V340.502C369.261 339.979 369.469 339.479 369.837 339.108L448.62 260.369C455.914 253.08 459.932 243.388 459.932 233.075C459.932 222.762 455.914 213.074 448.62 205.784L257.994 15.2499C250.7 7.96025 241.003 3.94413 230.688 3.94413C220.373 3.94413 210.676 7.96025 203.382 15.2499L15.2584 203.265C7.9647 210.554 3.94633 220.246 3.94633 230.555C3.94633 240.865 7.9647 250.556 15.2584 257.846L200.615 443.099C201.384 443.868 201.384 445.118 200.615 445.887C199.845 446.657 198.594 446.657 197.825 445.887L12.4683 260.638C4.42778 252.602 0 241.922 0 230.559C0 219.197 4.42778 208.512 12.4683 200.48L200.588 12.4613C208.629 4.42531 219.319 0 230.688 0C242.057 0 252.747 4.42531 260.784 12.4613L451.421 202.992C459.462 211.028 463.89 221.709 463.89 233.071C463.89 244.434 459.462 255.118 451.421 263.15L373.215 341.313V371.036C373.215 372.124 372.332 373.006 371.244 373.006H341.504L263.297 451.169C256.004 458.459 251.985 468.15 251.985 478.463C251.985 488.777 256.004 498.465 263.297 505.754L451.421 693.773C466.479 708.822 490.979 708.822 506.037 693.773L694.161 505.754C709.218 490.705 709.218 466.218 694.161 451.169L615.226 372.256C614.855 371.885 614.65 371.385 614.65 370.862V342.616H586.389C585.866 342.616 585.365 342.408 584.994 342.041L506.037 263.15C497.996 255.114 493.569 244.434 493.569 233.067C493.569 221.701 497.996 211.02 506.037 202.988L694.161 14.9733C702.201 6.93727 712.888 2.51197 724.257 2.51197C735.626 2.51197 746.316 6.93727 754.353 14.9733L942.476 202.992C959.073 219.579 959.073 246.567 942.476 263.154L864.263 341.449V370.907C864.263 371.995 863.379 372.878 862.291 372.878H832.817L754.353 451.173C739.295 466.222 739.295 490.709 754.353 505.758L942.476 693.777C957.534 708.826 982.035 708.826 997.092 693.777L1185.22 505.758C1192.51 498.468 1196.53 488.777 1196.53 478.467C1196.53 468.158 1192.51 458.466 1185.22 451.173L1106.47 372.328C1106.11 371.957 1105.9 371.457 1105.9 370.934V342.552H1077.5C1076.98 342.552 1076.48 342.344 1076.11 341.976L997.096 263.158C980.499 246.571 980.499 219.583 997.096 202.996L1185.22 14.9771C1201.82 -1.61024 1228.82 -1.61024 1245.42 14.9771L1433.54 202.996C1441.58 211.032 1446 221.712 1446 233.075C1446 244.438 1441.58 255.122 1433.54 263.154L1248.42 448.165C1247.65 448.934 1246.4 448.934 1245.63 448.165C1244.86 447.395 1244.86 446.145 1245.63 445.376L1430.75 260.366C1438.04 253.076 1442.06 243.384 1442.06 233.071C1442.06 222.758 1438.04 213.07 1430.75 205.781L1242.63 17.7618C1235.33 10.4722 1225.63 6.4561 1215.32 6.4561C1205 6.4561 1195.3 10.4722 1188.01 17.7618L999.882 205.781C984.825 220.83 984.825 245.317 999.882 260.366L1078.32 338.608H1107.87C1108.96 338.608 1109.84 339.491 1109.84 340.578V370.115L1188 448.38C1204.59 464.964 1204.59 491.955 1188 508.539L999.878 696.558C991.58 704.851 980.681 708.996 969.782 708.996L969.786 709Z" fill="#1A2217"/>
<path d="M81.2652 208.509L78 196.28L104.344 190H112V268H96.0123V205.314L81.2624 208.509H81.2652Z" fill="#E2E8F0"/>
<path d="M373 523H313V519.373C314.096 506.847 321.775 497.617 338.338 487.069C346.676 481.687 356.986 476.081 356.876 467.622C356.766 461.028 351.173 457.734 344.151 457.734C335.157 457.734 328.574 463.557 328.354 472.347V473.665H313.876V471.139C313.986 454.658 326.272 444 344.591 444C360.497 444 372.673 451.801 372.673 467.184C372.673 480.809 362.473 489.161 346.346 497.62C338.008 502.014 333.184 505.531 330.44 509.596H373V523Z" fill="#E2E8F0"/>
<path d="M610 243.289C610 260.21 597.555 269 579.111 269C560.667 269 548 259.77 548 244.827V243.509H562.665V244.169C562.665 251.2 568.776 255.595 578.555 255.595C588.333 255.595 594.444 250.65 594.444 242.631C594.444 234.612 587.112 229.994 578.332 229.994C574.776 229.994 571 230.762 567.443 232.193L562.109 225.162L585.219 203.405H551.776V190H607.22V196.594L583.664 219.008H583.887C600.664 219.008 609.997 230.875 609.997 243.291L610 243.289Z" fill="#E2E8F0"/>
<path d="M867.997 517.697H855.684V532H840.264V517.697H798V510.768L846.146 454H855.686V504.607H868V517.697H867.997ZM840.82 478.423L818.301 505.265H840.82V478.423Z" fill="#E2E8F0"/>
<path d="M1121 242.629C1121 260.208 1108.71 269 1090.27 269C1071.84 269 1059 259.66 1059 244.718V243.51H1073.48V244.06C1073.48 251.091 1080.29 255.486 1089.94 255.486C1099.6 255.486 1105.64 250.541 1105.64 242.192C1105.64 232.852 1099.27 228.347 1089.18 228.347C1083.58 228.347 1077.66 229.885 1075.02 232.852L1061.96 232.742L1064.38 190H1115.84V203.404H1077.76L1076.78 218.897C1080.84 217.029 1086.76 216.151 1092.03 216.151C1108.6 216.151 1121 226.041 1121 242.632V242.629Z" fill="#E2E8F0"/>
<path d="M193.6 124.024V140.512H195.472V124.024H193.6ZM189.532 130V131.53H194.14V130H189.532ZM182.458 125.32V136.498H190.162V125.32H188.308V129.478H184.33V125.32H182.458ZM184.33 130.954H188.308V134.968H184.33V130.954ZM200.313 124.33V129.802H211.329V124.33H209.457V125.662H202.167V124.33H200.313ZM202.167 127.066H209.457V128.362H202.167V127.066ZM198.369 130.954V132.448H213.237V130.954H198.369ZM200.133 133.69V135.094H209.529V136.264H200.151V139.378H202.023V137.596H211.383V133.69H200.133ZM200.151 138.91V140.35H211.851V138.91H200.151ZM230.724 124.042V136.228H232.614V124.042H230.724ZM225.666 125.302V126.13C225.666 129.154 223.182 131.602 219.222 132.88L220.014 134.374C224.73 132.88 227.664 129.64 227.664 125.302H225.666ZM220.068 125.302V126.832H226.836V125.302H220.068ZM226.836 127.318V128.848H230.994V127.318H226.836ZM226.674 131.026V132.556H230.922V131.026H226.674ZM222.048 138.64V140.17H233.028V138.64H222.048ZM222.048 135.058V139.594H223.938V135.058H222.048ZM239.561 125.698V126.904C239.561 129.118 238.085 131.296 235.529 132.16L236.483 133.654C239.417 132.646 241.091 129.946 241.091 126.904V125.698H239.561ZM239.939 125.698V126.904C239.939 129.73 241.541 132.322 244.385 133.312L245.321 131.818C242.855 130.972 241.451 128.938 241.451 126.904V125.698H239.939ZM244.403 128.164V129.712H247.823V128.164H244.403ZM236.069 125.068V126.58H244.889V125.068H236.069ZM238.085 134.68V136.21H247.283V140.494H249.173V134.68H238.085ZM247.283 124.042V133.852H249.173V124.042H247.283Z" fill="#202D3E"/>
<path d="M461.353 377.06V388.976H463.243V377.06H461.353ZM452.497 391.64V393.17H463.711V391.64H452.497ZM452.497 387.77V392.216H454.387V387.77H452.497ZM454.369 378.158C451.885 378.158 449.995 379.85 449.995 382.262C449.995 384.638 451.885 386.366 454.369 386.366C456.853 386.366 458.725 384.638 458.725 382.262C458.725 379.85 456.853 378.158 454.369 378.158ZM454.369 379.778C455.809 379.778 456.889 380.75 456.889 382.262C456.889 383.738 455.809 384.71 454.369 384.71C452.929 384.71 451.831 383.738 451.831 382.262C451.831 380.75 452.929 379.778 454.369 379.778ZM473.016 383.162V384.692H476.022V383.162H473.016ZM466.788 388.166V389.696H467.868C470.352 389.696 471.918 389.642 473.772 389.3L473.61 387.77C471.81 388.112 470.298 388.166 467.868 388.166H466.788ZM466.788 378.95V388.706H468.588V380.462H472.89V378.95H466.788ZM468.048 383.378V384.854H472.188V383.378H468.048ZM478.47 377.042V393.494H480.27V377.042H478.47ZM475.122 377.384V392.702H476.886V377.384H475.122ZM494.489 377.024V393.512H496.379V377.024H494.489ZM483.725 388.058V389.606H485.129C488.027 389.606 490.475 389.498 493.319 389.012L493.121 387.482C490.349 387.95 487.955 388.058 485.129 388.058H483.725ZM483.689 378.5V380.03H489.449V383.09H483.725V388.634H485.633V384.602H491.357V378.5H483.689ZM503.793 378.248C501.363 378.248 499.635 380.498 499.635 384.044C499.635 387.59 501.363 389.858 503.793 389.858C506.223 389.858 507.951 387.59 507.951 384.044C507.951 380.498 506.223 378.248 503.793 378.248ZM503.793 379.958C505.215 379.958 506.169 381.488 506.169 384.044C506.169 386.618 505.215 388.166 503.793 388.166C502.389 388.166 501.435 386.618 501.435 384.044C501.435 381.488 502.389 379.958 503.793 379.958ZM511.137 377.024V393.512H513.009V377.024H511.137ZM507.375 383.162V384.674H511.947V383.162H507.375ZM441.879 401.452V402.982H445.893V401.452H441.879ZM444.867 397.06V409.084H446.757V397.06H444.867ZM436.101 411.64V413.17H447.171V411.64H436.101ZM436.101 408.04V412.486H437.973V408.04H436.101ZM437.145 399.148V400.336C437.145 402.568 435.669 404.728 433.113 405.61L434.067 407.122C437.001 406.078 438.675 403.378 438.675 400.336V399.148H437.145ZM437.523 399.148V400.336C437.523 403.18 439.125 405.772 441.969 406.762L442.905 405.286C440.439 404.422 439.035 402.37 439.035 400.336V399.148H437.523ZM433.653 398.284V399.796H442.473V398.284H433.653ZM449.671 406.906V408.454H464.575V406.906H449.671ZM456.169 407.41V413.512H458.041V407.41H456.169ZM451.597 403.936V405.448H462.955V403.936H451.597ZM451.597 397.762V404.332H453.451V399.256H462.775V397.762H451.597ZM452.911 400.84V402.28H462.397V400.84H452.911ZM466.896 405.052V406.582H468.102C471.342 406.582 472.998 406.528 474.978 406.168L474.78 404.656C472.872 404.998 471.27 405.052 468.102 405.052H466.896ZM466.86 398.014V399.526H472.152V401.47H466.896V406.024H468.768V402.91H474.006V398.014H466.86ZM477.984 397.06V407.176H479.874V397.06H477.984ZM475.032 399.418V400.93H478.362V399.418H475.032ZM475.032 402.856V404.386H478.362V402.856H475.032ZM468.75 408.004V409.516H477.984V413.512H479.874V408.004H468.75ZM493.617 403.162V404.692H496.623V403.162H493.617ZM487.389 408.166V409.696H488.469C490.953 409.696 492.519 409.642 494.373 409.3L494.211 407.77C492.411 408.112 490.899 408.166 488.469 408.166H487.389ZM487.389 398.95V408.706H489.189V400.462H493.491V398.95H487.389ZM488.649 403.378V404.854H492.789V403.378H488.649ZM499.071 397.042V413.494H500.871V397.042H499.071ZM495.723 397.384V412.702H497.487V397.384H495.723ZM509.78 398.086V399.328C509.78 401.92 507.152 404.476 503.894 405.07L504.722 406.636C508.43 405.844 511.418 402.892 511.418 399.328V398.086H509.78ZM510.14 398.086V399.328C510.14 402.928 513.128 405.844 516.836 406.636L517.664 405.07C514.406 404.476 511.778 401.956 511.778 399.328V398.086H510.14ZM503.408 409.822V411.37H518.312V409.822H503.408ZM521.803 405.736V407.23H533.215V405.736H521.803ZM519.967 409.93V411.478H534.871V409.93H519.967ZM521.803 398.356V406.168H523.711V399.886H533.053V398.356H521.803ZM523.117 402.01V403.486H532.693V402.01H523.117Z" fill="#202D3E"/>
<path d="M707.716 126.508V128.812C707.716 131.566 706.024 134.662 703.504 135.868L704.584 137.362C707.356 135.994 709.21 132.358 709.21 128.812V126.508H707.716ZM708.094 126.508V128.812C708.094 132.178 709.876 135.616 712.648 136.948L713.71 135.454C711.19 134.284 709.588 131.368 709.588 128.812V126.508H708.094ZM704.116 125.68V127.246H713.062V125.68H704.116ZM714.682 124.042V140.494H716.572V124.042H714.682ZM716.14 130.522V132.088H719.128V130.522H716.14ZM732.699 124.042V140.494H734.499V124.042H732.699ZM730.377 130.522V132.088H733.347V130.522H730.377ZM729.135 124.348V139.702H730.899V124.348H729.135ZM723.573 126.598V128.29C723.573 131.566 722.547 134.41 720.135 135.778L721.287 137.218C723.897 135.652 725.013 132.286 725.013 128.29V126.598H723.573ZM723.933 126.598V128.29C723.933 131.998 725.085 135.202 727.713 136.624L728.811 135.184C726.435 133.96 725.391 131.26 725.391 128.29V126.598H723.933ZM720.585 125.86V127.39H728.145V125.86H720.585ZM736.927 131.008V132.52H751.795V131.008H736.927ZM743.407 129.064V131.476H745.279V129.064H743.407ZM738.817 124.564V129.64H749.887V124.564H738.817ZM748.033 126.04V128.164H740.671V126.04H748.033ZM738.691 133.636V135.058H748.087V136.228H738.709V139.324H740.581V137.578H749.941V133.636H738.691ZM738.709 138.892V140.35H750.409V138.892H738.709Z" fill="#202D3E"/>
<path d="M938.004 392.392V395.092C938.004 398.242 936.312 401.41 933.684 402.598L934.818 404.164C937.77 402.724 939.552 399.07 939.552 395.092V392.392H938.004ZM938.364 392.392V395.092C938.364 398.926 940.146 402.436 943.044 403.804L944.16 402.292C941.568 401.14 939.894 398.116 939.894 395.092V392.392H938.364ZM945.474 391.024V407.512H947.364V391.024H945.474ZM957.731 401.356C954.221 401.356 951.971 402.508 951.971 404.434C951.971 406.324 954.221 407.476 957.731 407.476C961.259 407.476 963.509 406.324 963.509 404.434C963.509 402.508 961.259 401.356 957.731 401.356ZM957.731 402.796C960.161 402.796 961.637 403.39 961.637 404.434C961.637 405.442 960.161 406.036 957.731 406.036C955.319 406.036 953.843 405.442 953.843 404.434C953.843 403.39 955.319 402.796 957.731 402.796ZM952.115 391.834V393.328H962.627V391.834H952.115ZM950.405 398.566V400.06H965.219V398.566H950.405ZM956.219 395.524V398.962H958.091V395.524H956.219ZM961.529 391.834V393.202C961.529 394.48 961.529 395.686 961.079 397.378L962.951 397.576C963.401 395.884 963.401 394.516 963.401 393.202V391.834H961.529ZM975.189 396.424V397.954H979.653V396.424H975.189ZM970.995 392.392V395.092C970.995 398.17 969.411 401.338 966.819 402.58L968.007 404.092C970.833 402.634 972.525 398.962 972.525 395.092V392.392H970.995ZM971.373 392.392V395.092C971.373 398.908 973.011 402.382 975.855 403.804L976.989 402.292C974.451 401.122 972.885 398.134 972.885 395.092V392.392H971.373ZM978.717 391.024V407.512H980.589V391.024H978.717ZM995.15 391.024V407.512H997.04V391.024H995.15ZM984.368 392.392V403.606H992.27V392.392H990.398V396.586H986.24V392.392H984.368ZM986.24 398.062H990.398V402.076H986.24V398.062ZM1006.43 392.086V393.328C1006.43 395.92 1003.81 398.476 1000.55 399.07L1001.38 400.636C1005.08 399.844 1008.07 396.892 1008.07 393.328V392.086H1006.43ZM1006.79 392.086V393.328C1006.79 396.928 1009.78 399.844 1013.49 400.636L1014.32 399.07C1011.06 398.476 1008.43 395.956 1008.43 393.328V392.086H1006.79ZM1000.06 403.822V405.37H1014.97V403.822H1000.06Z" fill="#202D3E"/>
<path d="M1182.07 127.042V143.494H1183.87V127.042H1182.07ZM1179.73 133.522V135.052H1182.7V133.522H1179.73ZM1178.54 127.366V142.684H1180.3V127.366H1178.54ZM1169.95 129.004V130.534H1177.53V129.004H1169.95ZM1169.86 139.588C1171.95 139.588 1175.32 139.516 1177.87 139.012L1177.75 137.626C1175.26 137.968 1171.75 138.022 1169.65 138.022L1169.86 139.588ZM1171.2 129.994V138.436H1172.91V129.994H1171.2ZM1174.58 129.994V138.436H1176.29V129.994H1174.58ZM1193.37 128.698V128.914C1193.37 133.468 1191.75 136.924 1186.6 139.462L1187.61 140.92C1193.66 137.95 1195.19 133.594 1195.19 128.698H1193.37ZM1187.54 128.698V130.21H1194.31V128.698H1187.54ZM1193.23 132.748L1186.71 133.162L1186.98 134.782L1193.23 134.206V132.748ZM1198.07 127.042V143.494H1199.96V127.042H1198.07ZM1207.12 129.508V131.812C1207.12 134.62 1205.41 137.698 1202.87 138.868L1203.95 140.362C1206.78 139.012 1208.63 135.43 1208.63 131.812V129.508H1207.12ZM1207.52 129.508V131.812C1207.52 135.34 1209.37 138.67 1212.23 139.948L1213.28 138.454C1210.7 137.374 1209.01 134.53 1209.01 131.812V129.508H1207.52ZM1203.47 128.68V130.246H1212.67V128.68H1203.47ZM1214.59 127.042V143.494H1216.48V127.042H1214.59ZM1235.21 127.06V138.976H1237.1V127.06H1235.21ZM1226.35 141.64V143.17H1237.57V141.64H1226.35ZM1226.35 137.77V142.216H1228.24V137.77H1226.35ZM1228.23 128.158C1225.74 128.158 1223.85 129.85 1223.85 132.262C1223.85 134.638 1225.74 136.366 1228.23 136.366C1230.71 136.366 1232.58 134.638 1232.58 132.262C1232.58 129.85 1230.71 128.158 1228.23 128.158ZM1228.23 129.778C1229.67 129.778 1230.75 130.75 1230.75 132.262C1230.75 133.738 1229.67 134.71 1228.23 134.71C1226.79 134.71 1225.69 133.738 1225.69 132.262C1225.69 130.75 1226.79 129.778 1228.23 129.778ZM1246.87 133.162V134.692H1249.88V133.162H1246.87ZM1240.65 138.166V139.696H1241.73C1244.21 139.696 1245.78 139.642 1247.63 139.3L1247.47 137.77C1245.67 138.112 1244.16 138.166 1241.73 138.166H1240.65ZM1240.65 128.95V138.706H1242.45V130.462H1246.75V128.95H1240.65ZM1241.91 133.378V134.854H1246.05V133.378H1241.91ZM1252.33 127.042V143.494H1254.13V127.042H1252.33ZM1248.98 127.384V142.702H1250.74V127.384H1248.98ZM1268.35 127.024V143.512H1270.24V127.024H1268.35ZM1257.58 138.058V139.606H1258.99C1261.88 139.606 1264.33 139.498 1267.18 139.012L1266.98 137.482C1264.21 137.95 1261.81 138.058 1258.99 138.058H1257.58ZM1257.55 128.5V130.03H1263.31V133.09H1257.58V138.634H1259.49V134.602H1265.21V128.5H1257.55ZM1277.65 128.248C1275.22 128.248 1273.49 130.498 1273.49 134.044C1273.49 137.59 1275.22 139.858 1277.65 139.858C1280.08 139.858 1281.81 137.59 1281.81 134.044C1281.81 130.498 1280.08 128.248 1277.65 128.248ZM1277.65 129.958C1279.07 129.958 1280.03 131.488 1280.03 134.044C1280.03 136.618 1279.07 138.166 1277.65 138.166C1276.25 138.166 1275.29 136.618 1275.29 134.044C1275.29 131.488 1276.25 129.958 1277.65 129.958ZM1284.99 127.024V143.512H1286.87V127.024H1284.99ZM1281.23 133.162V134.674H1285.8V133.162H1281.23Z" fill="#202D3E"/>
<path d="M165.968 308.2V324.04H167.984V308.2H165.968ZM154.04 327.76V329.392H168.632V327.76H154.04ZM154.04 322.408V328.312H156.008V322.408H154.04ZM156.344 309.688C153.104 309.688 150.68 311.896 150.68 315.04C150.68 318.16 153.104 320.392 156.344 320.392C159.584 320.392 161.984 318.16 161.984 315.04C161.984 311.896 159.584 309.688 156.344 309.688ZM156.344 311.416C158.456 311.416 160.064 312.904 160.064 315.04C160.064 317.152 158.456 318.64 156.344 318.64C154.232 318.64 152.624 317.152 152.624 315.04C152.624 312.904 154.232 311.416 156.344 311.416ZM179.278 316.384V318.04H183.358V316.384H179.278ZM171.07 323.032V324.664H172.462C175.846 324.664 177.91 324.592 180.382 324.112L180.19 322.48C177.79 322.96 175.798 323.032 172.462 323.032H171.07ZM171.07 310.792V323.584H172.966V312.4H179.11V310.792H171.07ZM172.39 316.648V318.232H178.126V316.648H172.39ZM186.766 308.176V329.872H188.686V308.176H186.766ZM182.398 308.68V328.768H184.294V308.68H182.398ZM206.148 308.152V329.896H208.14V308.152H206.148ZM191.604 323.008V324.664H193.404C197.124 324.664 200.388 324.52 204.324 323.872L204.108 322.24C200.268 322.864 197.028 323.008 193.404 323.008H191.604ZM191.556 310.192V311.824H199.572V316.312H191.604V323.632H193.596V317.944H201.588V310.192H191.556ZM216.218 309.832C213.05 309.832 210.818 312.784 210.818 317.392C210.818 322.024 213.05 324.976 216.218 324.976C219.362 324.976 221.618 322.024 221.618 317.392C221.618 312.784 219.362 309.832 216.218 309.832ZM216.218 311.632C218.306 311.632 219.722 313.888 219.722 317.392C219.722 320.92 218.306 323.224 216.218 323.224C214.13 323.224 212.714 320.92 212.714 317.392C212.714 313.888 214.13 311.632 216.218 311.632ZM226.322 308.152V329.896H228.29V308.152H226.322ZM220.97 316.432V318.064H227.186V316.432H220.97ZM234.936 309.4V319.552H244.728V309.4H242.784V312.832H236.904V309.4H234.936ZM236.904 314.416H242.784V317.944H236.904V314.416ZM244.176 313.648V315.304H250.32V313.648H244.176ZM249.72 308.176V320.752H251.712V308.176H249.72ZM237.648 321.856V329.584H251.712V321.856H237.648ZM249.768 323.44V327.976H239.592V323.44H249.768ZM261.038 309.184C257.822 309.184 255.518 310.984 255.518 313.648C255.518 316.288 257.822 318.136 261.038 318.136C264.278 318.136 266.582 316.288 266.582 313.648C266.582 310.984 264.278 309.184 261.038 309.184ZM261.038 310.84C263.15 310.84 264.662 311.992 264.662 313.648C264.662 315.328 263.15 316.456 261.038 316.456C258.926 316.456 257.414 315.328 257.414 313.648C257.414 311.992 258.926 310.84 261.038 310.84ZM260.15 320.536V329.2H262.142V320.536H260.15ZM269.75 308.176V329.896H271.718V308.176H269.75ZM254.174 321.616C258.134 321.616 263.462 321.544 268.358 320.656L268.214 319.168C263.438 319.888 257.942 319.936 253.91 319.936L254.174 321.616ZM288.515 313.288V314.944H293.987V313.288H288.515ZM282.827 309.496V312.16C282.827 315.472 280.643 318.544 277.427 319.744L278.459 321.328C282.083 319.864 284.435 316.36 284.435 312.16V309.496H282.827ZM283.211 309.496V312.232C283.211 316.096 285.539 319.456 288.995 320.8L290.075 319.264C286.931 318.112 284.819 315.256 284.819 312.232V309.496H283.211ZM293.243 308.2V324.424H295.235V308.2H293.243ZM281.291 327.76V329.392H295.763V327.76H281.291ZM281.291 322.624V328.528H283.283V322.624H281.291ZM298.393 318.544V320.2H299.785C303.265 320.2 305.329 320.104 307.825 319.624L307.633 317.992C305.209 318.472 303.193 318.544 299.785 318.544H298.393ZM298.393 309.76V319.432H300.313V311.392H306.793V309.76H298.393ZM299.713 314.08V315.64H306.529V314.08H299.713ZM313.849 308.176V321.328H315.745V308.176H313.849ZM310.345 313.84V315.472H314.449V313.84H310.345ZM309.073 308.584V321.208H310.945V308.584H309.073ZM301.201 322.48V324.112H313.777V329.872H315.745V322.48H301.201Z" fill="#3A3F4D"/>
<path d="M640.888 299.664V301.32C640.888 305.016 636.808 308.328 632.992 309.048L633.88 310.704C638.224 309.72 642.616 306.048 642.616 301.32V299.664H640.888ZM641.248 299.664V301.32C641.248 306.072 645.664 309.72 649.984 310.704L650.872 309.048C647.08 308.328 642.976 305.04 642.976 301.32V299.664H641.248ZM632.2 315.312V316.944H651.856V315.312H632.2ZM653.19 313.008V314.664H654.894C658.95 314.664 661.782 314.544 665.142 313.968L664.926 312.336C661.662 312.912 658.902 313.008 654.894 313.008H653.19ZM653.19 300.144V313.584H655.182V301.8H663.294V300.144H653.19ZM654.678 306.216V307.824H662.814V306.216H654.678ZM666.942 298.176V319.872H668.958V298.176H666.942ZM668.478 306.888V308.568H672.51V306.888H668.478ZM678.428 298.968C675.212 298.968 672.836 300.936 672.836 303.792C672.836 306.624 675.212 308.592 678.428 308.592C681.668 308.592 684.044 306.624 684.044 303.792C684.044 300.936 681.668 298.968 678.428 298.968ZM678.428 300.6C680.54 300.6 682.1 301.92 682.1 303.792C682.1 305.664 680.54 306.96 678.428 306.96C676.34 306.96 674.756 305.664 674.756 303.792C674.756 301.92 676.34 300.6 678.428 300.6ZM688.124 298.176V309.288H690.14V298.176H688.124ZM676.1 310.344V311.952H688.172V314.136H676.148V318.888H678.092V315.624H690.14V310.344H676.1ZM676.148 318V319.584H690.86V318H676.148ZM696.93 299.568V308.448H707.034V299.568H696.93ZM705.114 301.176V306.864H698.85V301.176H705.114ZM711.57 298.176V310.632H713.562V298.176H711.57ZM705.69 313.2V313.608C705.69 315.768 702.234 317.832 698.466 318.264L699.138 319.8C703.53 319.224 707.394 316.728 707.394 313.608V313.2H705.69ZM705.978 313.2V313.608C705.978 316.656 709.746 319.2 714.162 319.8L714.834 318.264C711.066 317.808 707.706 315.696 707.706 313.608V313.2H705.978ZM699.33 312.096V313.656H714.066V312.096H699.33ZM705.69 310.008V312.792H707.706V310.008H705.69ZM733.911 298.152V319.872H735.927V298.152H733.911ZM735.375 306.96V308.616H739.383V306.96H735.375ZM728.367 300.504V300.816C728.367 306.552 725.367 311.184 719.367 314.232L720.471 315.768C727.479 312.24 730.311 306.672 730.311 300.504H728.367ZM720.375 300.504V302.136H729.399V300.504H720.375ZM748.565 299.64V300.504C748.565 304.536 745.205 307.728 739.637 309.264L740.429 310.824C746.741 309.096 750.653 305.16 750.653 299.64H748.565ZM740.741 299.64V301.248H749.789V299.64H740.741ZM742.685 312.096V313.704H755.165V319.824H757.157V312.096H742.685ZM755.165 298.176V311.112H757.157V298.176H755.165ZM749.765 302.04V303.672H755.573V302.04H749.765ZM749.549 306.648V308.28H755.429V306.648H749.549ZM775.891 298.176V319.872H777.811V298.176H775.891ZM772.219 306.864V308.52H776.395V306.864H772.219ZM770.971 298.656V318.768H772.843V298.656H770.971ZM760.171 312.864V314.52H761.587C764.851 314.52 767.035 314.424 769.627 313.872L769.435 312.216C766.915 312.744 764.755 312.864 761.587 312.864H760.171ZM760.171 300.816V313.608H762.139V302.448H768.235V300.816H760.171ZM793.96 303.288V304.944H799.432V303.288H793.96ZM788.272 299.496V302.16C788.272 305.472 786.088 308.544 782.872 309.744L783.904 311.328C787.528 309.864 789.88 306.36 789.88 302.16V299.496H788.272ZM788.656 299.496V302.232C788.656 306.096 790.984 309.456 794.44 310.8L795.52 309.264C792.376 308.112 790.264 305.256 790.264 302.232V299.496H788.656ZM798.688 298.2V314.424H800.68V298.2H798.688ZM786.736 317.76V319.392H801.208V317.76H786.736ZM786.736 312.624V318.528H788.728V312.624H786.736ZM803.839 308.544V310.2H805.231C808.711 310.2 810.775 310.104 813.271 309.624L813.079 307.992C810.655 308.472 808.639 308.544 805.231 308.544H803.839ZM803.839 299.76V309.432H805.759V301.392H812.239V299.76H803.839ZM805.159 304.08V305.64H811.975V304.08H805.159ZM819.295 298.176V311.328H821.191V298.176H819.295ZM815.791 303.84V305.472H819.895V303.84H815.791ZM814.519 298.584V311.208H816.391V298.584H814.519ZM806.647 312.48V314.112H819.223V319.872H821.191V312.48H806.647Z" fill="#3A3F4D"/>
<path d="M1153.34 312.096V316.92H1155.34V312.096H1153.34ZM1162.97 301.176V317.688H1164.96V301.176H1162.97ZM1150.15 320.76V322.392H1165.49V320.76H1150.15ZM1150.15 316.08V321.216H1152.14V316.08H1150.15ZM1147.34 312.84C1151.28 312.84 1156.54 312.768 1161.22 312.024L1161.07 310.56C1156.46 311.16 1151.09 311.208 1147.08 311.208L1147.34 312.84ZM1158.55 313.992V315.456H1163.47V313.992H1158.55ZM1154.14 302.064C1150.94 302.064 1148.78 303.552 1148.78 305.832C1148.78 308.136 1150.94 309.624 1154.14 309.624C1157.3 309.624 1159.46 308.136 1159.46 305.832C1159.46 303.552 1157.3 302.064 1154.14 302.064ZM1154.14 303.552C1156.15 303.552 1157.57 304.44 1157.57 305.832C1157.57 307.224 1156.15 308.112 1154.14 308.112C1152.1 308.112 1150.68 307.224 1150.68 305.832C1150.68 304.44 1152.1 303.552 1154.14 303.552ZM1181.97 301.176V322.872H1183.96V301.176H1181.97ZM1183.48 310.08V311.76H1187.51V310.08H1183.48ZM1167.16 304.632V306.264H1179.95V304.632H1167.16ZM1173.64 308.064C1170.59 308.064 1168.36 310.128 1168.36 313.056C1168.36 315.984 1170.59 318.048 1173.64 318.048C1176.71 318.048 1178.92 315.984 1178.92 313.056C1178.92 310.128 1176.71 308.064 1173.64 308.064ZM1173.64 309.72C1175.61 309.72 1177.02 311.088 1177.02 313.056C1177.02 315 1175.61 316.392 1173.64 316.392C1171.67 316.392 1170.25 315 1170.25 313.056C1170.25 311.088 1171.67 309.72 1173.64 309.72ZM1172.61 301.44V305.376H1174.6V301.44H1172.61ZM1190 307.68V309.312H1204.73V307.68H1190ZM1187.33 312.216V313.848H1207.01V312.216H1187.33ZM1190 301.968V308.496H1191.96V301.968H1190ZM1189.85 320.712V322.344H1204.85V320.712H1189.85ZM1189.85 316.008V321.144H1191.82V316.008H1189.85ZM1216.15 304.272V307.8C1216.15 311.472 1213.54 315.6 1210.44 317.112L1211.59 318.696C1214.98 316.968 1217.74 312.312 1217.74 307.8V304.272H1216.15ZM1216.51 304.272V307.8C1216.51 312.096 1219.13 316.464 1222.56 318.168L1223.69 316.584C1220.55 315.096 1218.1 311.232 1218.1 307.8V304.272H1216.51ZM1211.21 303.384V305.064H1222.9V303.384H1211.21ZM1225.47 301.176V322.872H1227.48V301.176H1225.47ZM1227 309.936V311.616H1231.03V309.936H1227ZM1247.46 301.176V322.872H1249.36V301.176H1247.46ZM1244.03 309.912V311.592H1248.21V309.912H1244.03ZM1242.74 301.632V321.792H1244.61V301.632H1242.74ZM1235.34 304.536V307.032C1235.34 311.448 1233.76 315.144 1230.64 316.872L1231.86 318.408C1235.2 316.416 1236.9 312.24 1236.9 307.032V304.536H1235.34ZM1235.7 304.536V307.032C1235.7 311.808 1237.43 315.816 1240.74 317.64L1241.92 316.104C1238.87 314.544 1237.26 311.016 1237.26 307.032V304.536H1235.7ZM1231.14 303.72V305.376H1241.22V303.72H1231.14ZM1250.96 318.552V320.208H1270.61V318.552H1250.96ZM1259.74 313.896V319.248H1261.73V313.896H1259.74ZM1253.33 302.784V304.392H1266.22V307.752H1253.41V313.704H1255.37V309.36H1268.19V302.784H1253.33ZM1253.41 312.864V314.496H1268.69V312.864H1253.41ZM1284.75 305.16V306.768H1291.01V305.16H1284.75ZM1284.75 309.84V311.448H1291.06V309.84H1284.75ZM1290.24 301.2V317.256H1292.24V301.2H1290.24ZM1278.29 320.76V322.392H1292.76V320.76H1278.29ZM1278.29 315.696V321.6H1280.28V315.696H1278.29ZM1275.46 302.616V313.56H1285.25V302.616H1283.31V306.456H1277.43V302.616H1275.46ZM1277.43 308.016H1283.31V311.928H1277.43V308.016ZM1304.85 305.16V306.792H1310.66V305.16H1304.85ZM1304.66 309.672V311.304H1310.51V309.672H1304.66ZM1310.32 301.176V314.184H1312.31V301.176H1310.32ZM1303.53 302.808V303.672C1303.53 307.776 1300.29 310.968 1294.75 312.576L1295.56 314.184C1301.8 312.312 1305.67 308.4 1305.67 302.808H1303.53ZM1295.87 302.808V304.44H1304.9V302.808H1295.87ZM1305.26 314.424C1300.87 314.424 1298.08 315.984 1298.08 318.6C1298.08 321.216 1300.87 322.776 1305.26 322.776C1309.65 322.776 1312.43 321.216 1312.43 318.6C1312.43 315.984 1309.65 314.424 1305.26 314.424ZM1305.26 315.984C1308.45 315.984 1310.49 316.968 1310.49 318.6C1310.49 320.232 1308.45 321.192 1305.26 321.192C1302.09 321.192 1300.05 320.232 1300.05 318.6C1300.05 316.968 1302.09 315.984 1305.26 315.984Z" fill="#3A3F4D"/>
<path d="M404.912 567.048V570.936C404.912 575.04 402.296 579.192 399.08 580.728L400.304 582.36C403.856 580.56 406.544 575.928 406.544 570.936V567.048H404.912ZM405.248 567.048V570.936C405.248 575.76 407.96 580.224 411.488 581.952L412.688 580.368C409.472 578.88 406.88 574.896 406.88 570.936V567.048H405.248ZM414.944 565.152V586.896H416.936V565.152H414.944ZM428.998 578.856C424.366 578.856 421.438 580.368 421.438 582.864C421.438 585.336 424.366 586.824 428.998 586.824C433.606 586.824 436.558 585.336 436.558 582.864C436.558 580.368 433.606 578.856 428.998 578.856ZM428.998 580.416C432.406 580.416 434.566 581.352 434.566 582.864C434.566 584.352 432.406 585.288 428.998 585.288C425.59 585.288 423.406 584.352 423.406 582.864C423.406 581.352 425.59 580.416 428.998 580.416ZM421.606 566.256V567.888H435.574V566.256H421.606ZM419.278 575.28V576.888H438.862V575.28H419.278ZM427.318 571.104V575.736H429.286V571.104H427.318ZM434.422 566.256V568.104C434.422 569.808 434.422 571.392 433.822 573.624L435.79 573.864C436.366 571.608 436.366 569.856 436.366 568.104V566.256H434.422ZM444.66 567.048V570.936C444.66 574.896 442.188 579.072 439.044 580.656L440.268 582.24C443.7 580.416 446.292 575.736 446.292 570.936V567.048H444.66ZM445.02 567.048V570.936C445.02 575.592 447.54 580.032 450.9 581.832L452.124 580.248C449.052 578.712 446.628 574.752 446.628 570.936V567.048H445.02ZM454.02 565.176V586.872H456.036V565.176H454.02ZM455.556 573.96V575.64H459.588V573.96H455.556ZM479.314 565.176V586.872H481.234V565.176H479.314ZM475.882 573.768V575.4H480.034V573.768H475.882ZM474.514 565.632V585.792H476.41V565.632H474.514ZM463.57 567.672V581.064H471.85V567.672H463.57ZM469.978 569.256V579.48H465.442V569.256H469.978ZM488.76 568.752V569.688C488.76 572.64 486.528 575.28 483.288 576.336L484.248 577.872C487.92 576.672 490.392 573.504 490.392 569.688V568.752H488.76ZM489.096 568.752V569.688C489.096 573.312 491.64 576.264 495.336 577.368L496.248 575.784C493.032 574.872 490.728 572.424 490.728 569.688V568.752H489.096ZM483.816 567.84V569.448H495.624V567.84H483.816ZM488.76 565.176V568.536H490.728V565.176H488.76ZM498.648 565.2V578.472H500.664V565.2H498.648ZM493.44 578.928C488.904 578.928 486.168 580.368 486.168 582.864C486.168 585.384 488.904 586.824 493.44 586.824C497.976 586.824 500.736 585.384 500.736 582.864C500.736 580.368 497.976 578.928 493.44 578.928ZM493.44 580.512C496.752 580.512 498.744 581.376 498.744 582.864C498.744 584.4 496.752 585.264 493.44 585.264C490.152 585.264 488.16 584.4 488.16 582.864C488.16 581.376 490.152 580.512 493.44 580.512ZM507.453 566.568V575.448H517.557V566.568H507.453ZM515.637 568.176V573.864H509.373V568.176H515.637ZM522.093 565.176V577.632H524.085V565.176H522.093ZM516.213 580.2V580.608C516.213 582.768 512.757 584.832 508.989 585.264L509.661 586.8C514.053 586.224 517.917 583.728 517.917 580.608V580.2H516.213ZM516.501 580.2V580.608C516.501 583.656 520.269 586.2 524.685 586.8L525.357 585.264C521.589 584.808 518.229 582.696 518.229 580.608V580.2H516.501ZM509.853 579.096V580.656H524.589V579.096H509.853ZM516.213 577.008V579.792H518.229V577.008H516.213ZM540.882 570.288V571.944H546.354V570.288H540.882ZM535.194 566.496V569.16C535.194 572.472 533.01 575.544 529.794 576.744L530.826 578.328C534.45 576.864 536.802 573.36 536.802 569.16V566.496H535.194ZM535.578 566.496V569.232C535.578 573.096 537.906 576.456 541.362 577.8L542.442 576.264C539.298 575.112 537.186 572.256 537.186 569.232V566.496H535.578ZM545.61 565.2V581.424H547.602V565.2H545.61ZM533.658 584.76V586.392H548.13V584.76H533.658ZM533.658 579.624V585.528H535.65V579.624H533.658ZM561.416 570.792V572.448H566.312V570.792H561.416ZM565.688 565.176V578.112H567.68V565.176H565.688ZM560.552 578.76C556.064 578.76 553.304 580.272 553.304 582.816C553.304 585.384 556.064 586.848 560.552 586.848C565.016 586.848 567.776 585.384 567.776 582.816C567.776 580.272 565.016 578.76 560.552 578.76ZM560.552 580.32C563.816 580.32 565.808 581.232 565.808 582.816C565.808 584.376 563.816 585.288 560.552 585.288C557.288 585.288 555.296 584.376 555.296 582.816C555.296 581.232 557.288 580.32 560.552 580.32ZM555.368 567.36V569.112C555.368 572.232 553.136 575.136 549.92 576.312L550.952 577.896C554.552 576.552 557 573.12 557 569.112V567.36H555.368ZM555.752 567.36V569.112C555.752 572.76 558.08 576.024 561.608 577.296L562.616 575.712C559.472 574.608 557.36 571.92 557.36 569.112V567.36H555.752ZM550.52 566.76V568.392H562.112V566.76H550.52Z" fill="#3A3F4D"/>
<path d="M914.696 571.152V572.784H920.168V571.152H914.696ZM919.04 565.2V581.088H921.032V565.2H919.04ZM907.184 584.76V586.392H921.632V584.76H907.184ZM907.184 579.696V585.6H909.176V579.696H907.184ZM908.72 567.888V569.64C908.72 572.712 906.488 575.592 903.248 576.744L904.28 578.328C907.904 576.984 910.352 573.576 910.352 569.64V567.888H908.72ZM909.104 567.888V569.616C909.104 573.288 911.432 576.552 914.96 577.824L915.968 576.264C912.824 575.16 910.712 572.424 910.712 569.616V567.888H909.104ZM903.872 566.952V568.56H915.464V566.952H903.872ZM923.254 576.264V577.896H942.91V576.264H923.254ZM932.23 577.272V582.264H934.222V577.272H932.23ZM925.774 566.184V573.816H940.366V566.184H925.774ZM938.398 567.792V572.208H927.718V567.792H938.398ZM925.75 584.76V586.392H940.726V584.76H925.75ZM925.75 580.176V585.336H927.718V580.176H925.75ZM958.02 565.152V586.872H960.036V565.152H958.02ZM959.484 573.96V575.616H963.492V573.96H959.484ZM952.476 567.504V567.816C952.476 573.552 949.476 578.184 943.476 581.232L944.58 582.768C951.588 579.24 954.42 573.672 954.42 567.504H952.476ZM944.484 567.504V569.136H953.508V567.504H944.484ZM972.514 567.048V570.936C972.514 575.04 969.898 579.192 966.682 580.728L967.906 582.36C971.458 580.56 974.146 575.928 974.146 570.936V567.048H972.514ZM972.85 567.048V570.936C972.85 575.76 975.562 580.224 979.09 581.952L980.29 580.368C977.074 578.88 974.482 574.896 974.482 570.936V567.048H972.85ZM982.546 565.152V586.896H984.538V565.152H982.546ZM996.6 578.856C991.968 578.856 989.04 580.368 989.04 582.864C989.04 585.336 991.968 586.824 996.6 586.824C1001.21 586.824 1004.16 585.336 1004.16 582.864C1004.16 580.368 1001.21 578.856 996.6 578.856ZM996.6 580.416C1000.01 580.416 1002.17 581.352 1002.17 582.864C1002.17 584.352 1000.01 585.288 996.6 585.288C993.192 585.288 991.008 584.352 991.008 582.864C991.008 581.352 993.192 580.416 996.6 580.416ZM989.208 566.256V567.888H1003.18V566.256H989.208ZM986.88 575.28V576.888H1006.46V575.28H986.88ZM994.92 571.104V575.736H996.888V571.104H994.92ZM1002.02 566.256V568.104C1002.02 569.808 1002.02 571.392 1001.42 573.624L1003.39 573.864C1003.97 571.608 1003.97 569.856 1003.97 568.104V566.256H1002.02ZM1008.11 566.856V568.488H1017.71V566.856H1008.11ZM1011.37 571.704V577.128H1013.34V571.704H1011.37ZM1016.92 566.856V568.008C1016.92 569.4 1016.92 571.368 1016.37 574.224L1018.31 574.44C1018.89 571.584 1018.89 569.424 1018.89 568.008V566.856H1016.92ZM1021.84 565.176V581.52H1023.83V565.176H1021.84ZM1022.92 572.232V573.888H1026.93V572.232H1022.92ZM1010.13 584.76V586.392H1024.53V584.76H1010.13ZM1010.13 580.008V585.264H1012.09V580.008H1010.13ZM1007.01 578.064C1010.82 578.064 1016.01 577.968 1020.52 577.176L1020.37 575.736C1015.98 576.336 1010.65 576.432 1006.79 576.432L1007.01 578.064ZM1042.83 565.152V586.896H1044.82V565.152H1042.83ZM1028.28 580.008V581.664H1030.08C1033.8 581.664 1037.07 581.52 1041 580.872L1040.79 579.24C1036.95 579.864 1033.71 580.008 1030.08 580.008H1028.28ZM1028.24 567.192V568.824H1036.25V573.312H1028.28V580.632H1030.28V574.944H1038.27V567.192H1028.24Z" fill="#3A3F4D"/>
<path d="M222.586 265.089H188.379C185.662 265.089 183.46 262.887 183.46 260.17V196.379C183.46 193.662 185.662 191.46 188.379 191.46H225.604L241.347 207.366V222.436" stroke="black" stroke-width="4" stroke-miterlimit="10" stroke-linecap="round" stroke-linejoin="round"/>
<path d="M222.474 254.594H194.119V233.604H222.474" stroke="black" stroke-width="4" stroke-miterlimit="10" stroke-linecap="round" stroke-linejoin="round"/>
<path d="M194.119 244.099H222.251" stroke="black" stroke-width="4" stroke-miterlimit="10" stroke-linecap="round" stroke-linejoin="round"/>
<path d="M201.619 204.948C201.619 204.948 199.653 203.134 196.622 204.047C193.839 204.885 193.148 208.693 195.039 210.176C196.125 211.028 197.759 211.728 199.961 212.507C204.889 214.249 203.068 221.2 198.054 221.233C196.098 221.246 195.183 221.122 193.464 219.998" stroke="black" stroke-width="4" stroke-miterlimit="10" stroke-linecap="round" stroke-linejoin="round"/>
<path d="M198.055 223.109V221.234" stroke="black" stroke-width="4" stroke-miterlimit="10" stroke-linecap="round" stroke-linejoin="round"/>
<path d="M198.055 203.797V202.119" stroke="black" stroke-width="4" stroke-miterlimit="10" stroke-linecap="round" stroke-linejoin="round"/>
<path d="M240.618 207.366H225.604V192.262" stroke="black" stroke-width="4" stroke-miterlimit="10" stroke-linecap="round" stroke-linejoin="round"/>
<path d="M257.581 270.501H227.9C225.183 270.501 222.98 268.298 222.98 265.581V228.029C222.98 225.312 225.183 223.109 227.9 223.109H257.581C260.298 223.109 262.501 225.312 262.501 228.029V265.581C262.501 268.298 260.298 270.501 257.581 270.501Z" stroke="black" stroke-width="4" stroke-miterlimit="10" stroke-linecap="round" stroke-linejoin="round"/>
<path d="M253.154 232.292H232.164V242.787H253.154V232.292Z" stroke="black" stroke-width="4" stroke-miterlimit="10" stroke-linecap="round" stroke-linejoin="round"/>
<path d="M204.614 233.604V254.594" stroke="black" stroke-width="4" stroke-miterlimit="10" stroke-linecap="round" stroke-linejoin="round"/>
<path d="M1237.68 185H1198V264.041H1237.68V185Z" stroke="black" stroke-width="4" stroke-miterlimit="22.9256" stroke-linecap="round" stroke-linejoin="round"/>
<path d="M1208 185.82V213.922C1208 218.847 1210.71 223.061 1215.19 225.108C1220.27 227.429 1223.58 231.222 1223.58 235.508C1223.58 238.352 1222.12 240.98 1219.66 243.104C1216.85 245.523 1215.38 248.715 1215.38 252.424V263.221" stroke="black" stroke-width="4" stroke-miterlimit="22.9256" stroke-linecap="round" stroke-linejoin="round"/>
<path d="M1227.85 248.954V262.565" stroke="black" stroke-width="4" stroke-miterlimit="22.9256" stroke-linecap="round" stroke-linejoin="round"/>
<path d="M1227.85 200.087V216.649C1227.85 222.436 1231.88 227.312 1237.28 228.61" stroke="black" stroke-width="4" stroke-miterlimit="22.9256" stroke-linecap="round" stroke-linejoin="round"/>
<path d="M1217.84 205.006V216.236" stroke="black" stroke-width="4" stroke-miterlimit="22.9256" stroke-linecap="round" stroke-linejoin="round"/>
<path d="M1198.93 229.834C1199.81 229.682 1200.71 229.604 1201.62 229.604C1207.05 229.604 1211.45 232.321 1211.45 235.672C1211.45 239.023 1207.05 241.739 1201.62 241.739C1200.52 241.739 1199.44 241.627 1198.41 241.407" stroke="black" stroke-width="4" stroke-miterlimit="22.9256" stroke-linecap="round" stroke-linejoin="round"/>
<path d="M1217.84 185.584V195.174" stroke="black" stroke-width="4" stroke-miterlimit="22.9256" stroke-linecap="round" stroke-linejoin="round"/>
<path d="M1227.85 188.187V185" stroke="black" stroke-width="4" stroke-miterlimit="22.9256" stroke-linecap="round" stroke-linejoin="round"/>
<path d="M1251.3 185H1237.68V264.041H1251.3V185Z" stroke="black" stroke-width="4" stroke-miterlimit="22.9256" stroke-linecap="round" stroke-linejoin="round"/>
<path d="M1264.91 185H1251.3V264.041H1264.91V185Z" stroke="black" stroke-width="4" stroke-miterlimit="22.9256" stroke-linecap="round" stroke-linejoin="round"/>
<path d="M709.078 243.694V219.982C709.078 217.072 711.437 214.712 714.347 214.712C715.745 214.712 717.084 215.267 718.072 216.256C719.062 217.244 719.616 218.584 719.616 219.982C719.616 224.579 719.616 230.521 719.616 230.521L735.424 235.79V254.233L730.155 259.502H709.078L693.269 243.694C693.269 243.694 693.269 243.694 693.271 243.693C695.367 241.597 698.209 240.419 701.173 240.419C704.137 240.419 706.98 241.597 709.076 243.693C709.078 243.694 709.078 243.694 709.078 243.694Z" stroke="black" stroke-width="4" stroke-miterlimit="10" stroke-linecap="round" stroke-linejoin="round"/>
<path d="M730.155 259.502H709.078V270.041H730.155V259.502Z" stroke="black" stroke-width="4" stroke-miterlimit="10" stroke-linecap="round" stroke-linejoin="round"/>
<path d="M709.078 225.251H698.539V201.539H730.155V225.251H719.617" stroke="black" stroke-width="4" stroke-miterlimit="10" stroke-linecap="round" stroke-linejoin="round"/>
<path d="M693.269 243.694H688V191H767.041V243.694H735.425" stroke="black" stroke-width="4" stroke-miterlimit="10" stroke-linecap="round" stroke-linejoin="round"/>
<path d="M740.694 202.856H743.329" stroke="black" stroke-width="4" stroke-miterlimit="10" stroke-linecap="round" stroke-linejoin="round"/>
<path d="M740.694 213.395H743.329" stroke="black" stroke-width="4" stroke-miterlimit="10" stroke-linecap="round" stroke-linejoin="round"/>
<path d="M740.694 223.934H743.329" stroke="black" stroke-width="4" stroke-miterlimit="10" stroke-linecap="round" stroke-linejoin="round"/>
<path d="M753.868 202.856H756.502" stroke="black" stroke-width="4" stroke-miterlimit="10" stroke-linecap="round" stroke-linejoin="round"/>
<path d="M753.868 213.395H756.502" stroke="black" stroke-width="4" stroke-miterlimit="10" stroke-linecap="round" stroke-linejoin="round"/>
<path d="M753.868 223.934H756.502" stroke="black" stroke-width="4" stroke-miterlimit="10" stroke-linecap="round" stroke-linejoin="round"/>
<path d="M515.159 498.062V455.579V442.46H485.437H455.384V452.299V455.579V498.062" stroke="black" stroke-width="4" stroke-miterlimit="10" stroke-linecap="round" stroke-linejoin="round"/>
<path d="M485.437 442.46H455.384V452.299H485.437V442.46Z" stroke="black" stroke-width="4" stroke-miterlimit="10" stroke-linecap="round" stroke-linejoin="round"/>
<path d="M455.384 455.579H450.307C447.638 455.579 445.477 457.725 445.477 460.375V503.102C445.477 505.75 447.638 507.897 450.307 507.897H478.574H491.969H520.237C522.905 507.897 525.067 505.75 525.067 503.102V460.375C525.067 457.725 522.905 455.579 520.237 455.579H515.159" stroke="black" stroke-width="4" stroke-miterlimit="10" stroke-linecap="round" stroke-linejoin="round"/>
<path d="M446.468 498.063H523.746" stroke="black" stroke-width="4" stroke-miterlimit="10" stroke-linecap="round" stroke-linejoin="round"/>
<path d="M470.411 521.501C476.132 516.722 478.175 509.51 478.574 507.897" stroke="black" stroke-width="4" stroke-miterlimit="10" stroke-linecap="round" stroke-linejoin="round"/>
<path d="M491.97 507.897C492.369 509.51 494.412 516.722 500.133 521.501" stroke="black" stroke-width="4" stroke-miterlimit="10" stroke-linecap="round" stroke-linejoin="round"/>
<path d="M463.558 521.501H506.986" stroke="black" stroke-width="4" stroke-miterlimit="10" stroke-linecap="round" stroke-linejoin="round"/>
<path d="M497.148 471.938V488.059H473.396V472.181" stroke="black" stroke-width="4" stroke-miterlimit="10" stroke-linecap="round" stroke-linejoin="round"/>
<path d="M485.437 462.101L468.037 476.127" stroke="black" stroke-width="4" stroke-miterlimit="10" stroke-linecap="round" stroke-linejoin="round"/>
<path d="M485.437 462.101L502.837 476.127" stroke="black" stroke-width="4" stroke-miterlimit="10" stroke-linecap="round" stroke-linejoin="round"/>
<path d="M1008.27 486.557V510.372L986.173 522.025L986.182 497.367L1008.27 486.557ZM1008.27 486.557L986.182 474.425L964.096 486.557L986.182 497.367" stroke="black" stroke-width="4" stroke-miterlimit="10" stroke-linecap="round" stroke-linejoin="round"/>
<path d="M964.096 486.557V510.372L986.174 522.025" stroke="black" stroke-width="4" stroke-miterlimit="10" stroke-linecap="round" stroke-linejoin="round"/>
<path d="M1014.04 443H935V522.025H952.967V460.296H1014.04V443Z" stroke="black" stroke-width="4" stroke-miterlimit="10" stroke-linecap="round" stroke-linejoin="round"/>
<path d="M952.967 460.296L935 443" stroke="black" stroke-width="4" stroke-miterlimit="10" stroke-linecap="round" stroke-linejoin="round"/>
<path d="M1004.28 460.296V454.061" stroke="black" stroke-width="4" stroke-miterlimit="10" stroke-linecap="round" stroke-linejoin="round"/>
<path d="M994.441 460.296V454.061" stroke="black" stroke-width="4" stroke-miterlimit="10" stroke-linecap="round" stroke-linejoin="round"/>
<path d="M984.6 460.296V454.061" stroke="black" stroke-width="4" stroke-miterlimit="10" stroke-linecap="round" stroke-linejoin="round"/>
<path d="M974.758 460.296V454.061" stroke="black" stroke-width="4" stroke-miterlimit="10" stroke-linecap="round" stroke-linejoin="round"/>
<path d="M964.916 460.296V454.061" stroke="black" stroke-width="4" stroke-miterlimit="10" stroke-linecap="round" stroke-linejoin="round"/>
<path d="M952.967 472.632H946.732" stroke="black" stroke-width="4" stroke-miterlimit="10" stroke-linecap="round" stroke-linejoin="round"/>
<path d="M952.967 482.474H946.732" stroke="black" stroke-width="4" stroke-miterlimit="10" stroke-linecap="round" stroke-linejoin="round"/>
<path d="M952.967 492.315H946.732" stroke="black" stroke-width="4" stroke-miterlimit="10" stroke-linecap="round" stroke-linejoin="round"/>
<path d="M952.967 502.157H946.732" stroke="black" stroke-width="4" stroke-miterlimit="10" stroke-linecap="round" stroke-linejoin="round"/>
<path d="M952.967 511.999H946.732" stroke="black" stroke-width="4" stroke-miterlimit="10" stroke-linecap="round" stroke-linejoin="round"/>
</g>
<defs>
<clipPath id="clip0_1308_12405">
<rect width="1446" height="709" fill="white"/>
</clipPath>
</defs>
</svg>
